# xmcd CD database file
#
# Track frame offsets:
#	150
#	20933
#	39323
#
# Disc length: 782 seconds
#
# Revision: 2
# Processed by: cddbd v1.5.2PL0 Copyright (c) Steve Scherf et al.
# Submitted via: CDex 1.51
#
DISCID=1f030c03
DTITLE=Chris Duarte Group - Chris Duarte Group (Promo CD5)
DYEAR=1994
DGENRE=Blues
TTITLE0=My Way Down
TTITLE1=C-Butt Rock
TTITLE2=Letter To My Girlfriend
EXTD=YEAR: 1994
EXTT0=
EXTT1=
EXTT2=
PLAYORDER=
